<svg fill="#00bcd4" xmlns="http://www.w3.org/2000/svg" viewBox="0 0 24 24">
  <path
    d="M12 .5C5.73.5.5 5.74.5 12.02c0 5.1 3.29 9.43 7.86 10.96.57.1.78-.25.78-.56 0-.28-.01-1.02-.02-2.01-3.2.7-3.87-1.54-3.87-1.54-.52-1.33-1.27-1.68-1.27-1.68-1.04-.7.08-.69.08-.69 1.15.08 1.75 1.18 1.75 1.18 1.02 1.76 2.68 1.25 3.33.96.1-.74.4-1.25.73-1.54-2.55-.29-5.23-1.28-5.23-5.68 0-1.25.45-2.27 1.18-3.07-.12-.29-.51-1.47.11-3.06 0 0 .97-.31 3.18 1.18a11.08 11.08 0 0 1 2.9-.39c.98 0 1.97.13 2.9.39 2.2-1.49 3.17-1.18 3.17-1.18.63 1.59.24 2.77.12 3.06.74.8 1.18 1.82 1.18 3.07 0 4.41-2.69 5.38-5.25 5.66.41.36.78 1.06.78 2.13 0 1.54-.01 2.78-.01 3.16 0 .31.21.67.79.55A10.52 10.52 0 0 0 23.5 12C23.5 5.74 18.27.5 12 .5z"
  />
</svg>
